<svg xmlns="http://www.w3.org/2000/svg" xmlns:xlink="http://www.w3.org/1999/xlink" viewBox="0 0 206.22 163.93"><defs><style>.cls-1{fill:none;}.cls-2{isolation:isolate;}.cls-3{clip-path:url(#clip-path);}.cls-4{clip-path:url(#clip-path-2);}.cls-5{mix-blend-mode:overlay;}.cls-6{clip-path:url(#clip-path-3);}.cls-7{clip-path:url(#clip-path-4);}.cls-8{fill:url(#linear-gradient);}.cls-9{clip-path:url(#clip-path-5);}.cls-10{fill:url(#linear-gradient-2);}.cls-11{clip-path:url(#clip-path-6);}.cls-12{fill:url(#linear-gradient-3);}.cls-13{clip-path:url(#clip-path-7);}.cls-14{fill:url(#linear-gradient-4);}.cls-15{clip-path:url(#clip-path-8);}.cls-16{fill:url(#linear-gradient-5);}.cls-17{clip-path:url(#clip-path-9);}.cls-18{fill:url(#linear-gradient-6);}.cls-19{clip-path:url(#clip-path-10);}.cls-20{fill:url(#linear-gradient-7);}.cls-21{clip-path:url(#clip-path-11);}.cls-22{fill:url(#linear-gradient-8);}.cls-23{clip-path:url(#clip-path-12);}.cls-24{fill:url(#linear-gradient-9);}.cls-25{clip-path:url(#clip-path-13);}.cls-26{fill:url(#linear-gradient-10);}.cls-27{clip-path:url(#clip-path-14);}.cls-28{fill:url(#linear-gradient-11);}.cls-29{clip-path:url(#clip-path-15);}.cls-30{fill:url(#linear-gradient-12);}.cls-31{clip-path:url(#clip-path-16);}.cls-32{fill:url(#linear-gradient-13);}.cls-33{clip-path:url(#clip-path-17);}.cls-34{fill:url(#linear-gradient-14);}.cls-35{clip-path:url(#clip-path-18);}.cls-36{fill:url(#linear-gradient-15);}.cls-37{clip-path:url(#clip-path-19);}.cls-38{fill:url(#linear-gradient-16);}.cls-39{clip-path:url(#clip-path-20);}.cls-40{fill:url(#linear-gradient-17);}.cls-41{opacity:0.6;}.cls-42{clip-path:url(#clip-path-21);}.cls-43{fill:url(#linear-gradient-18);}.cls-44{clip-path:url(#clip-path-23);}.cls-45{fill:#eddb00;}</style><clipPath id="clip-path" transform="translate(-3.71 -3.98)"><polyline class="cls-1" points="-19.02 167.91 209.92 167.91 209.92 -80.14 -19.02 -80.14"/></clipPath><clipPath id="clip-path-2" transform="translate(-3.71 -3.98)"><polyline class="cls-1" points="-19.02 -80.14 209.92 -80.14 209.92 167.91 -19.02 167.91"/></clipPath><clipPath id="clip-path-3" transform="translate(-3.71 -3.98)"><rect class="cls-1" x="29.01" y="86.91" width="71.58" height="69.88"/></clipPath><clipPath id="clip-path-4" transform="translate(-3.71 -3.98)"><path class="cls-1" d="M43.74,124.88l-1.05.54a.53.53,0,0,0-.3.53l.36,5.66-1.5-1.24-.92-.73a.42.42,0,0,0-.12-.08.56.56,0,0,0-.38,0,.67.67,0,0,0-.17.08l-7.07,4.89,1.5-8.4a.19.19,0,0,0,0-.13,1,1,0,0,0,0-.16.51.51,0,0,0-.16-.24L29,121.43l2.14.37,4.17.76a.75.75,0,0,0,.22,0,.56.56,0,0,0,.31-.17l4.39-5.17,1.16-1.36,0,.2.6,5.44v.07a.33.33,0,0,0,.11.22s0,0,0,0a.58.58,0,0,0,.24.14l4.34,1.4Z"/></clipPath><linearGradient id="linear-gradient" x1="-19.02" y1="167.93" x2="-18.02" y2="167.93" gradientTransform="matrix(66.17, 0, 0, 66.17, 1280.73, -10986.46)" gradientUnits="userSpaceOnUse"><stop offset="0" stop-color="#52b9e9"/><stop offset="1" stop-color="#0e9e70"/></linearGradient><clipPath id="clip-path-5" transform="translate(-3.71 -3.98)"><path class="cls-1" d="M50.56,144.89l-1.82.19a.53.53,0,0,0-.47.38l-1.36,4.24-.61,1.88-1.36-6.28a.58.58,0,0,0-.21-.32.41.41,0,0,0-.21-.1l-7.29-1.46,1-.67,5.87-4.22a.57.57,0,0,0,.23-.48l-.25-4,4.39,3.59a.57.57,0,0,0,.62.06l1.54-.8,2.5-1.29-.6,1.86-.8,2.48h0a.89.89,0,0,0,0,.28,0,0,0,0,1,0,0v0a.49.49,0,0,0,.17.24l4.25,3.73Z"/></clipPath><linearGradient id="linear-gradient-2" x1="-19.02" y1="167.91" x2="-18.02" y2="167.91" gradientTransform="matrix(66.19, 0, 0, 66.19, 1299.96, -10970.12)" xlink:href="#linear-gradient"/><clipPath id="clip-path-6" transform="translate(-3.71 -3.98)"><polygon class="cls-1" points="53.57 134.16 48.85 136.59 43.93 132.58 43.56 126.76 43.52 126.24 45.05 125.46 48.24 123.81 54.22 125.74 56.08 126.32 53.57 134.16"/></clipPath><linearGradient id="linear-gradient-3" x1="-19.02" y1="167.93" x2="-18.02" y2="167.93" gradientTransform="matrix(66.17, 0, 0, 66.17, 1290.42, -10981.3)" xlink:href="#linear-gradient"/><clipPath id="clip-path-7" transform="translate(-3.71 -3.98)"><polygon class="cls-1" points="49.16 122.1 48.15 122.62 44.24 121.36 43.09 120.99 42.41 114.68 46.64 109.91 47.38 110.13 51.69 111.53 55.45 118.83 49.16 122.1"/></clipPath><linearGradient id="linear-gradient-4" x1="-19.02" y1="167.91" x2="-18.02" y2="167.91" gradientTransform="matrix(66.17, 0, 0, 66.17, 1278.34, -10994.21)" xlink:href="#linear-gradient"/><clipPath id="clip-path-8" transform="translate(-3.71 -3.98)"><path class="cls-1" d="M51.64,102.18,49,105.46h0a.25.25,0,0,0-.09.19s0,0,0,0a.56.56,0,0,0,0,.22h0a.74.74,0,0,0,0,.14L51,110.12l-4.33-1.38a.44.44,0,0,0-.4,0,.54.54,0,0,0-.18.11l-3.79,4.27-.53-6.22-.19-2.34a.56.56,0,0,0-.15-.32.83.83,0,0,0-.16-.13l-4.34-2.05-1.47-.7L40.5,101l1.32-.09a.6.6,0,0,0,.41-.29s0,0,0,0l2-4.13,1.68-3.57.21.56,2.71,7.48a.55.55,0,0,0,.31.34.93.93,0,0,0,.25,0l1.71-.11,1.43-.1Z"/></clipPath><linearGradient id="linear-gradient-5" x1="-19.02" y1="167.9" x2="-18.02" y2="167.9" gradientTransform="matrix(66.19, 0, 0, 66.19, 1265.27, -11010.18)" xlink:href="#linear-gradient"/><clipPath id="clip-path-9" transform="translate(-3.71 -3.98)"><polygon class="cls-1" points="63.97 143.55 57.65 144.19 56.5 143.17 52.87 140 53.93 136.7 54.49 134.95 61.81 131.18 65.58 138.49 63.97 143.55"/></clipPath><linearGradient id="linear-gradient-6" x1="-19.02" y1="167.9" x2="-18.02" y2="167.9" gradientTransform="matrix(66.17, 0, 0, 66.17, 1301.12, -10972.71)" xlink:href="#linear-gradient"/><clipPath id="clip-path-10" transform="translate(-3.71 -3.98)"><polygon class="cls-1" points="60.31 113.11 52.48 110.6 50.04 105.88 51.52 104.09 54.07 100.97 56.66 100.81 60.4 100.56 60.86 101.47 62.84 105.27 60.31 113.11"/></clipPath><linearGradient id="linear-gradient-7" x1="-19.02" y1="167.91" x2="-18.02" y2="167.91" gradientTransform="matrix(66.17, 0, 0, 66.17, 1273.84, -11003.41)" xlink:href="#linear-gradient"/><clipPath id="clip-path-11" transform="translate(-3.71 -3.98)"><path class="cls-1" d="M72.11,147a.51.51,0,0,0-.12.46l0,.06,2.69,7.93-6.77-3a.6.6,0,0,0-.6.09l-4.76,4.33,2-6.11a.56.56,0,0,0-.17-.59l-5.58-4.9,5.63-.57a.54.54,0,0,0,.48-.38l1.39-4.35,2.09,4.05a.55.55,0,0,0,.54.3l5.71-.36Z"/></clipPath><linearGradient id="linear-gradient-8" x1="-19.02" y1="167.9" x2="-18.02" y2="167.9" gradientTransform="matrix(66.17, 0, 0, 66.17, 1313.58, -10962.26)" xlink:href="#linear-gradient"/><clipPath id="clip-path-12" transform="translate(-3.71 -3.98)"><path class="cls-1" d="M71.16,121.09a.61.61,0,0,0,0,.3s0,.08,0,.14l1.47,2.81-2.83,1.45a.55.55,0,0,0-.27.34l-1,3-3-1a.52.52,0,0,0-.44,0l-2.82,1.46-1.46-2.82a.62.62,0,0,0-.33-.29l-3-1,1-3a.52.52,0,0,0,0-.42L57,119.32l2.83-1.46a.52.52,0,0,0,.27-.31l1-3,3,1a.58.58,0,0,0,.43,0L67.32,114l1.46,2.83a.57.57,0,0,0,.31.28l3,1Z"/></clipPath><linearGradient id="linear-gradient-9" x1="-19.02" y1="167.91" x2="-18.02" y2="167.91" gradientTransform="matrix(66.2, 0, 0, 66.2, 1290.84, -10993.71)" xlink:href="#linear-gradient"/><clipPath id="clip-path-13" transform="translate(-3.71 -3.98)"><path class="cls-1" d="M65.17,99a.58.58,0,0,0-.41.27.22.22,0,0,0-.05.11l-1.41,4.34-2.08-4a.6.6,0,0,0-.2-.22s-.06,0-.09,0a.61.61,0,0,0-.24-.07l-.31,0L55,99.79l2.45-3,0,0a.94.94,0,0,0,.1-.23v-.07a.81.81,0,0,0,0-.15l0-.07-2.23-6.59-.48-1.38,6.77,3a.5.5,0,0,0,.6-.09L64,89.65l3-2.74-2,6.12a.59.59,0,0,0,0,.29v0h0a.71.71,0,0,0,.16.26l5.58,4.89Z"/></clipPath><linearGradient id="linear-gradient-10" x1="-19.02" y1="167.93" x2="-18.02" y2="167.93" gradientTransform="matrix(66.18, 0, 0, 66.18, 1267.25, -11017.62)" xlink:href="#linear-gradient"/><clipPath id="clip-path-14" transform="translate(-3.71 -3.98)"><polygon class="cls-1" points="75.55 142.7 69.22 143.11 66.79 138.4 68.42 133.31 69.29 130.56 77.13 133.07 79.56 137.79 75.55 142.7"/></clipPath><linearGradient id="linear-gradient-11" x1="-19.02" y1="167.92" x2="-18.02" y2="167.92" gradientTransform="matrix(66.16, 0, 0, 66.16, 1306.57, -10972.64)" xlink:href="#linear-gradient"/><clipPath id="clip-path-15" transform="translate(-3.71 -3.98)"><polygon class="cls-1" points="75.11 108.73 67.8 112.5 65.84 108.69 64.03 105.17 65.65 100.12 66.29 100.07 71.95 99.53 76.73 103.66 75.11 108.73"/></clipPath><linearGradient id="linear-gradient-12" x1="-19.02" y1="167.93" x2="-18.02" y2="167.93" gradientTransform="matrix(66.16, 0, 0, 66.16, 1279.48, -11004.92)" xlink:href="#linear-gradient"/><clipPath id="clip-path-16" transform="translate(-3.71 -3.98)"><polygon class="cls-1" points="87.15 128.99 82.98 133.76 77.91 132.14 74.16 124.82 76.16 123.78 81.47 121.05 86.53 122.69 87.15 128.99"/></clipPath><linearGradient id="linear-gradient-13" x1="-19.02" y1="167.92" x2="-18.02" y2="167.92" gradientTransform="matrix(66.13, 0, 0, 66.13, 1301.61, -10977.74)" xlink:href="#linear-gradient"/><clipPath id="clip-path-17" transform="translate(-3.71 -3.98)"><polygon class="cls-1" points="86.09 117.42 81.37 119.85 77.82 118.72 73.53 117.34 75.1 112.43 76.04 109.5 80.76 107.08 85.67 111.09 86.09 117.42"/></clipPath><linearGradient id="linear-gradient-14" x1="-19.02" y1="167.9" x2="-18.02" y2="167.9" gradientTransform="matrix(66.18, 0, 0, 66.18, 1290.31, -10997.67)" xlink:href="#linear-gradient"/><clipPath id="clip-path-18" transform="translate(-3.71 -3.98)"><path class="cls-1" d="M87.79,142.87a.53.53,0,0,0-.46.31l-3.65,7.71-2.92-8a.55.55,0,0,0-.56-.38l-3.2.21,3.66-4.46a.53.53,0,0,0,.07-.6l-2.09-4.06L83,134.94a.56.56,0,0,0,.59-.16l3.76-4.29.73,8.65a.15.15,0,0,0,0,.07.62.62,0,0,0,.31.4l5.8,2.72Z"/></clipPath><linearGradient id="linear-gradient-15" x1="-19.02" y1="167.93" x2="-18.02" y2="167.93" gradientTransform="matrix(66.15, 0, 0, 66.15, 1315.41, -10968.28)" xlink:href="#linear-gradient"/><clipPath id="clip-path-19" transform="translate(-3.71 -3.98)"><path class="cls-1" d="M85.53,105.21a.58.58,0,0,0-.23.49l.27,3.85L81.19,106a.57.57,0,0,0-.61-.08l-4,2.1,1.39-4.35a.53.53,0,0,0-.18-.58l-4.25-3.71,7.36-.73a.57.57,0,0,0,.47-.41l2-6.1,1.37,6.27a.56.56,0,0,0,.42.44l7.32,1.45Z"/></clipPath><linearGradient id="linear-gradient-16" x1="-19.02" y1="167.92" x2="-18.02" y2="167.92" gradientTransform="matrix(66.17, 0, 0, 66.17, 1281.02, -11010.92)" xlink:href="#linear-gradient"/><clipPath id="clip-path-20" transform="translate(-3.71 -3.98)"><path class="cls-1" d="M94.28,121.19a.53.53,0,0,0-.53.19l-5.57,6.55-.59-5.72a.53.53,0,0,0-.37-.48l-4.35-1.39,4-2.08a.57.57,0,0,0,.3-.54l-.35-5.56,2.4,2a.55.55,0,0,0,.67,0L97,109.25l-1.5,8.41a.74.74,0,0,0,0,.21.46.46,0,0,0,.2.31l4.88,4.15Z"/></clipPath><linearGradient id="linear-gradient-17" x1="-19.02" y1="167.9" x2="-18.02" y2="167.9" gradientTransform="matrix(66.14, 0, 0, 66.14, 1299.49, -10987.15)" xlink:href="#linear-gradient"/><clipPath id="clip-path-21" transform="translate(-3.71 -3.98)"><path class="cls-1" d="M112.21,153.15l24,8-14.31,2.92ZM191.9,136.5l-4.76,14.25-14.72,3ZM77.72,114.22l4.57-13.69,5,24.49ZM198.1,76.13l10.13,11.45-4.84,14.5ZM98.82,51l14.4-2.94L94.16,65Zm11.41,99.87-21-23.65-6-29.56,10-29.88,22.93-20.31,30.18-6.16,29.76,9.93,20,22.62,6.33,31-9.61,28.76L169.5,154.35l-30.39,6.2Zm39-110.16,14.82-3,10,11.33Zm-20.46-6.44L115.45,46.12,97.67,49.75,91.92,67,78,79.33,81.7,97.6l-5.67,17L87.89,128l3.74,18.33,17.75,5.92,12,13.5L139,162.1l17.43,5.81h0l.32-.28,13.43-11.9L188.28,152l5.85-17.52,13.45-11.91L204,105l5.93-17.77-12.42-14-3.58-17.55-17-5.67-12.32-13.9L146.42,39.8,129.11,34Z"/></clipPath><linearGradient id="linear-gradient-18" x1="-19.02" y1="167.91" x2="-18.02" y2="167.91" gradientTransform="matrix(133.89, 0, 0, -133.89, 2619.06, 22578.9)" gradientUnits="userSpaceOnUse"><stop offset="0" stop-color="#fff"/><stop offset="0.69" stop-color="#6f7072"/><stop offset="1" stop-color="#6f7072"/></linearGradient><clipPath id="clip-path-23" transform="translate(-3.71 -3.98)"><polygon class="cls-1" points="3.71 117.1 75.3 118.1 75.3 4.98 3.71 1.98 3.71 117.1"/></clipPath></defs><title>landing-graphic-2</title><g class="cls-2"><g id="Layer_1" data-name="Layer 1"><g class="cls-3"><g class="cls-4"><g class="cls-5"><g class="cls-6"><g class="cls-7"><rect class="cls-8" x="25.24" y="112.66" width="25.28" height="25" transform="translate(-91.57 85.28) rotate(-57.23)"/></g><g class="cls-9"><rect class="cls-10" x="34.21" y="130.17" width="24.92" height="25.34" transform="translate(-102.4 100.79) rotate(-57.23)"/></g><g class="cls-11"><rect class="cls-12" x="41.03" y="121.47" width="17.54" height="17.48" transform="matrix(0.54, -0.84, 0.84, 0.54, -90.34, 97.63)"/></g><g class="cls-13"><rect class="cls-14" x="40.06" y="107.34" width="17.75" height="17.85" transform="translate(-79.02 90.5) rotate(-57.23)"/></g><g class="cls-15"><rect class="cls-16" x="30.81" y="90.31" width="26.34" height="25.39" transform="translate(-70.14 80.25) rotate(-57.23)"/></g><g class="cls-17"><rect class="cls-18" x="50.32" y="128.82" width="17.81" height="17.72" transform="translate(-92.31 108.98) rotate(-57.23)"/></g><g class="cls-19"><rect class="cls-20" x="47.7" y="98.06" width="17.48" height="17.55" transform="translate(-67.65 92.49) rotate(-57.23)"/></g><g class="cls-21"><rect class="cls-22" x="55.34" y="137.09" width="22.81" height="22.51" transform="translate(-97.82 120.2) rotate(-57.23)"/></g><g class="cls-23"><rect class="cls-24" x="53.97" y="111" width="21.67" height="21.67" transform="translate(-76.42 106.41) rotate(-57.23)"/></g><g class="cls-25"><rect class="cls-26" x="51.46" y="84.09" width="22.78" height="22.5" transform="matrix(0.54, -0.84, 0.84, 0.54, -55.04, 92.6)"/></g><g class="cls-27"><rect class="cls-28" x="64.44" y="128.07" width="17.47" height="17.53" transform="translate(-85.2 120.33) rotate(-57.23)"/></g><g class="cls-29"><rect class="cls-30" x="61.49" y="97.16" width="17.78" height="17.7" transform="translate(-60.56 103.84) rotate(-57.23)"/></g><g class="cls-31"><rect class="cls-32" x="71.79" y="118.51" width="17.72" height="17.8" transform="matrix(0.54, -0.84, 0.84, 0.54, -73.84, 122.29)"/></g><g class="cls-33"><rect class="cls-34" x="71.04" y="104.73" width="17.53" height="17.47" transform="translate(-62.5 115.18) rotate(-57.23)"/></g><g class="cls-35"><rect class="cls-36" x="72.37" y="127.95" width="26.45" height="25.48" transform="translate(-82.74 132.53) rotate(-57.23)"/></g><g class="cls-37"><rect class="cls-38" x="70.5" y="88.18" width="24.88" height="25.32" transform="translate(-50.45 112.02) rotate(-57.23)"/></g><g class="cls-39"><rect class="cls-40" x="79.09" y="106.09" width="25.29" height="25" transform="translate(-61.34 127.56) rotate(-57.23)"/></g></g></g></g><g class="cls-42"><rect class="cls-43" x="72.33" y="30.04" width="133.89" height="133.89"/></g><g class="cls-4"><g class="cls-5"><g class="cls-44"><polygon class="cls-45" points="57.73 17.65 58.99 4.91 9.63 0 57.73 17.65"/><polygon class="cls-45" points="64.12 48.45 71.59 38.05 31.3 9.11 64.12 48.45"/><polygon class="cls-45" points="54.27 78.31 65.94 73.04 45.5 27.84 54.27 78.31"/><polygon class="cls-45" points="30.8 99.25 43.54 100.52 48.45 51.16 30.8 99.25"/><polygon class="cls-45" points="0 105.65 10.4 113.12 39.33 72.82 0 105.65"/></g></g></g></g></g></g></svg>