<svg id="Layer_1" data-name="Layer 1" xmlns="http://www.w3.org/2000/svg" viewBox="0 0 76.56 76.56"><defs><style>.cls-1{fill:#e81f86;}</style></defs><title>landing-graphic-3</title><path class="cls-1" d="M20,48.54,9.39,46.6,6.14,47.77l-.71,3.94L7.71,55l3.44-.29,6.32-4.38Zm-.5-6.09L9.75,37.83l-3.44.3L4.6,41.74,6,45.5l3.4.62ZM22.1,54.27l-10.79.91-2.82,2,.32,4,3,2.59,3.25-1.17,6.79-8Zm3.48,5L15.39,63l-2.23,2.63,1.34,3.76L18.13,71l2.83-2,.25-.53ZM20.63,36.45,18,34.25l-5.66-4.79L9,28.85l-2.59,3,.33,4,3.13,1.47Zm2.6-5.52L17.06,22l-3.12-1.47-3.3,2.28L10,26.78,12.58,29Zm7,32.3-8.9,6.17-1.47,3.12,2.27,3.3,3.94.7,2.23-2.64Zm5.51,2.61L32,70.32,28.76,74.1l-.62,3.39,3.05,2.59,4-.33,1.46-3.12ZM27.17,26.28,23.51,16.09l-2-1.66-.67-.56-3.73,1.32,0,0-1.7,3.62,2,2.83,2.07,1ZM31.29,12,29.44,9.36l-.12-.18-4,.33-2.57,3.06,1.16,3.24,1.68,1.42,6.58,5.57L32,20.38ZM45.41,77.11l-.57-1.57-3.08-8.62-4.62,9.79.28,3.44L41,81.86l3.77-1.35Zm-5.56-67L38.69,6.85l-3.94-.72-2.17,1.5-1.11.79,0,.22.26,3.2,6.18,8.9ZM54,75.31l-2.88-4.15-3.29-4.74L45.9,77.07l1.17,3.25L51,81l3.28-2.29ZM48.34,7,44.72,5.3,41,6.66l-.36,2-.25,1.4L44,20.24l4.62-9.8-.18-2.16ZM63,74.6l-1.17-3.25L58,68.12l-4.44-3.76.9,10.78,2,2.84,4-.33ZM57.62,9.68,55.65,8l-1.08-.92-1.83.15-2.15.19-.3.63-1.17,2.49L49.65,17l.36,4.3,7-8.26ZM70.34,68.33l-2-2.83-9.79-4.61.34,1,3.32,9.23,2.63,2.23L68.65,72ZM65.9,14.65l-2.28-3.3-.53-.1-3.41-.6-2.23,2.63L55.53,23.93l3.57-2.47,5.32-3.7Zm9.91,45.73-2.62-2.22L62.53,56.22l.67,1,5.5,7.93,3.12,1.47,3.29-2.27ZM72.6,21.59l-1.35-3.78-3.62-1.69-2.83,2-3.49,7.39-1.13,2.4,3.74-1.34,6.45-2.31ZM79,51.28l-3.11-1.47-10.8.9,6.66,5.63,1.61,1.37,3.39.61,2.59-3ZM77,26l-3-2.58-3.25,1.16-7,8.27,3.69-.31L74.45,32l2.83-2Zm4.21,19.38L79.8,41.66,76.41,41l-.46.17-9.73,3.5,8.48,4,1.31.61L79.45,49Zm-.83-10-2.28-3.28-3.44.29-6.07,4.21-2.82,2,10.65,1.93,3.24-1.17Z" transform="translate(-4.6 -5.3)"/></svg>